<?xml version="1.0" encoding="iso-8859-1"?>
<!-- Generator: Adobe Illustrator 19.0.0, SVG Export Plug-In . SVG Version: 6.00 Build 0)  -->
<svg version="1.1" id="Layer_1" xmlns="http://www.w3.org/2000/svg" xmlns:xlink="http://www.w3.org/1999/xlink" x="0px" y="0px"
	 viewBox="0 0 511.999 511.999" style="enable-background:new 0 0 511.999 511.999;" xml:space="preserve">
<g>
	<g>
		<path d="M509.108,409.559l-35.748-34.31c-3.747-3.597-9.7-3.475-13.295,0.273c-3.597,3.747-3.475,9.7,0.273,13.297l18.649,17.9
			h-50.928V183.973c0-5.193-4.21-9.404-9.403-9.404h-50.343c-5.193,0-9.404,4.21-9.404,9.404v222.745h-22.333V113.447
			c0-5.193-4.21-9.404-9.404-9.404h-49.569c-5.193,0-9.403,4.21-9.403,9.404v293.271h-22.333V239.806
			c0-5.193-4.21-9.403-9.403-9.403H186.12c-5.193,0-9.403,4.21-9.403,9.403v166.912h-22.333V299.166c0-5.193-4.21-9.403-9.403-9.403
			H95.412c-5.193,0-9.403,4.21-9.403,9.403v107.552H54.272V85.217l19.221,20.637c1.852,1.989,4.364,2.994,6.883,2.994
			c2.294,0,4.595-0.835,6.406-2.522c3.8-3.539,4.012-9.489,0.473-13.291L51.77,54.937c-1.78-1.91-4.271-2.994-6.881-2.994
			c-2.609,0-5.103,1.085-6.881,2.994L2.522,93.036c-3.539,3.8-3.328,9.75,0.473,13.291c3.799,3.539,9.75,3.329,13.291-0.471
			l19.178-20.592v330.86c0,5.193,4.21,9.403,9.403,9.403h434.582l-19.113,18.343c-3.747,3.597-3.87,9.549-0.273,13.297
			c1.845,1.924,4.314,2.892,6.785,2.892c2.341,0,4.686-0.87,6.51-2.619l35.748-34.309c1.848-1.774,2.893-4.223,2.893-6.785
			S510.956,411.333,509.108,409.559z M135.578,406.718h-30.762v-98.149h30.762V406.718z M227.06,406.718h-31.536V249.21h31.536
			V406.718z M317.77,406.718h-30.762V122.851h30.762V406.718z M409.253,406.718h-31.536V193.377h31.536V406.718z"/>
	</g>
</g>
<g>
</g>
<g>
</g>
<g>
</g>
<g>
</g>
<g>
</g>
<g>
</g>
<g>
</g>
<g>
</g>
<g>
</g>
<g>
</g>
<g>
</g>
<g>
</g>
<g>
</g>
<g>
</g>
<g>
</g>
</svg>
