<?xml version="1.0" encoding="iso-8859-1"?>
<!-- Generator: Adobe Illustrator 19.0.0, SVG Export Plug-In . SVG Version: 6.00 Build 0)  -->
<svg version="1.1" id="Layer_1" xmlns="http://www.w3.org/2000/svg" xmlns:xlink="http://www.w3.org/1999/xlink" x="0px" y="0px"
	 viewBox="0 0 512 512" style="enable-background:new 0 0 512 512;" xml:space="preserve">
<g>
	<g>
		<path d="M443.286,75.498c-44.31-44.31-103.224-68.714-165.889-68.714c-5.632,0-10.199,4.567-10.199,10.199v224.404
			c0,3.643,1.944,7.011,5.1,8.833l194.366,112.218c1.606,0.927,3.36,1.369,5.089,1.369c3.522,0,6.949-1.827,8.838-5.093
			C501.139,323.202,512,282.63,512,241.388C512,178.722,487.596,119.809,443.286,75.498z M467.825,339.555L287.595,235.5V27.423
			c113.399,5.338,204.007,99.269,204.007,213.965C491.602,275.627,483.408,309.353,467.825,339.555z"/>
	</g>
</g>
<g>
	<g>
		<path d="M438.823,380.194c-0.7-2.614-2.409-4.843-4.753-6.197L244.802,264.724V46.208c0-5.632-4.566-10.199-10.199-10.199
			c-62.665,0-121.579,24.404-165.889,68.714C24.404,149.034,0,207.947,0,270.612c0,41.238,10.859,81.806,31.404,117.315
			c0.002,0.003,0.003,0.006,0.005,0.009c20.259,35.014,49.388,64.379,84.238,84.922c35.911,21.168,77.046,32.358,118.955,32.358
			s83.044-11.19,118.956-32.358c34.851-20.542,63.979-49.908,84.238-84.922C439.153,385.594,439.521,382.81,438.823,380.194z
			 M20.398,270.612c0-114.696,90.607-208.627,204.005-213.965v208.077L44.175,368.779C28.592,338.578,20.398,304.851,20.398,270.612
			z M234.603,484.818c-72.812,0-140.945-37.447-180.214-98.382l180.214-104.047l180.215,104.047
			C375.549,447.371,307.415,484.818,234.603,484.818z"/>
	</g>
</g>
<g>
	<g>
		<path d="M409.989,270.614l-2.041-1.172c-4.885-2.808-11.119-1.122-13.924,3.763c-2.806,4.884-1.121,11.118,3.763,13.924
			l2.041,1.172c1.601,0.92,3.347,1.357,5.071,1.357c3.533,0,6.968-1.838,8.854-5.121
			C416.558,279.654,414.873,273.42,409.989,270.614z"/>
	</g>
</g>
<g>
	<g>
		<path d="M381.432,254.209l-67.316-38.67c-4.885-2.809-11.119-1.122-13.924,3.763c-2.806,4.884-1.122,11.118,3.762,13.924
			l67.316,38.67c1.601,0.92,3.347,1.357,5.071,1.357c3.533,0,6.968-1.838,8.854-5.121
			C388.001,263.249,386.316,257.015,381.432,254.209z"/>
	</g>
</g>
<g>
</g>
<g>
</g>
<g>
</g>
<g>
</g>
<g>
</g>
<g>
</g>
<g>
</g>
<g>
</g>
<g>
</g>
<g>
</g>
<g>
</g>
<g>
</g>
<g>
</g>
<g>
</g>
<g>
</g>
</svg>
